<svg xmlns="http://www.w3.org/2000/svg" version="1.1" viewBox="0.00 0.00 192.00 192.00">
<g strokeWidth="2.00" fill="none" strokeLinecap="butt">
<path stroke="#3d3c3c" vectorEffect="non-scaling-stroke" d="   M 74.03 118.74   L 75.90 123.47"/>
<path stroke="#818181" vectorEffect="non-scaling-stroke" d="   M 75.90 123.47   L 78.49 127.30"/>
<path stroke="#3d3c3c" vectorEffect="non-scaling-stroke" d="   M 78.49 127.30   L 79.08 127.96   Q 79.45 128.37 79.23 128.89   L 73.62 142.15   Q 73.41 142.66 73.92 142.85   C 75.99 143.64 77.10 143.07 77.76 140.94   Q 80.13 133.36 83.75 127.27"/>
<path stroke="#818181" vectorEffect="non-scaling-stroke" d="   M 83.75 127.27   C 93.11 125.93 98.08 123.84 102.31 116.43   A 1.20 1.19 11.8 0 0 101.14 114.65   L 96.79 115.11   Q 96.63 115.13 96.57 114.97   Q 96.53 114.83 96.48 114.70   Q 96.44 114.57 96.57 114.57   Q 102.57 114.48 105.62 110.86"/>
<path stroke="#3d3c3c" vectorEffect="non-scaling-stroke" d="   M 105.62 110.86   Q 106.55 109.19 106.54 107.51"/>
<path stroke="#818181" vectorEffect="non-scaling-stroke" d="   M 106.54 107.51   L 112.76 97.07   A 0.15 0.15 0.0 0 0 112.57 96.86   L 105.31 100.11   A 0.23 0.23 0.0 0 1 105.09 99.71   C 108.82 97.31 113.01 95.05 115.75 91.74   Q 123.26 82.70 124.30 70.12   A 0.66 0.65 80.8 0 0 123.39 69.46   C 118.31 71.62 115.92 68.25 111.30 67.32   Q 110.88 67.23 111.25 67.02   L 111.51 66.86   Q 111.87 66.65 112.29 66.66   C 119.73 66.79 123.94 62.61 124.55 55.54   Q 125.25 47.51 127.55 39.86   Q 127.66 39.50 127.30 39.62   Q 120.59 41.91 109.20 44.39   C 97.71 46.89 98.84 56.08 101.73 64.71   Q 102.02 65.58 101.30 65.01   Q 95.93 60.73 94.76 54.00   Q 94.70 53.65 94.46 53.91   C 85.46 63.50 80.93 74.86 85.47 87.87   A 0.06 0.06 0.0 0 1 85.36 87.92   Q 82.03 82.69 81.66 76.53   Q 81.63 75.99 81.34 76.44   C 77.67 82.19 75.07 91.36 79.27 97.40   Q 79.31 97.46 79.24 97.51   Q 79.21 97.53 79.18 97.57   Q 79.08 97.72 79.06 97.68   Q 74.94 92.30 75.98 85.49   A 0.28 0.28 0.0 0 0 75.48 85.29   Q 67.93 96.61 73.52 109.35   Q 73.54 109.40 73.49 109.42   Q 73.35 109.47 73.21 109.51   Q 73.06 109.56 72.99 109.43   L 69.78 103.37   Q 69.45 102.76 69.42 103.45   C 69.15 108.83 71.16 113.78 74.03 118.74"/>
<path stroke="#bbbaba" vectorEffect="non-scaling-stroke" d="   M 106.54 107.51   Q 103.52 110.44 99.77 112.01   Q 99.44 112.15 99.73 112.37   Q 99.92 112.50 100.18 112.41   Q 102.80 111.47 105.62 110.86"/>
<path stroke="#bbbaba" vectorEffect="non-scaling-stroke" d="   M 83.75 127.27   L 89.46 111.93"/>
<path stroke="#818181" vectorEffect="non-scaling-stroke" d="   M 89.46 111.93   Q 96.04 93.23 102.93 74.47   Q 109.00 57.93 121.76 45.86   Q 122.00 45.64 121.67 45.61   Q 121.41 45.58 121.23 45.82   Q 120.88 46.28 120.84 46.32   Q 108.99 57.41 103.26 69.54   Q 98.03 80.62 83.56 117.96"/>
<path stroke="#bbbaba" vectorEffect="non-scaling-stroke" d="   M 83.56 117.96   L 79.33 126.88   Q 79.18 127.20 78.83 127.26   Q 78.67 127.28 78.49 127.30"/>
<path stroke="#bbbaba" vectorEffect="non-scaling-stroke" d="   M 75.90 123.47   Q 76.41 123.23 77.24 123.42   Q 78.10 123.63 77.53 122.95   L 74.03 118.74"/>
<path stroke="#3d3c3c" vectorEffect="non-scaling-stroke" d="   M 89.46 111.93   Q 86.18 114.41 84.85 118.39   A 0.58 0.57 42.1 0 1 83.78 118.44   L 83.56 117.96"/>
<path stroke="#818181" vectorEffect="non-scaling-stroke" d="   M 95.30 143.82   Q 87.25 143.59 79.04 143.78   C 77.09 143.83 75.43 145.18 73.12 143.99   Q 72.70 143.78 72.23 143.77   Q 68.15 143.70 64.10 143.79   C 62.84 143.82 61.71 144.38 61.73 145.74   A 1.78 1.78 0.0 0 0 63.51 147.50   L 95.58 147.50   A 1.27 1.26 -69.1 0 0 96.53 147.07   Q 97.84 145.57 96.32 144.23   A 1.64 1.61 66.3 0 0 95.30 143.82"/>
</g>
<path fill="rgba(0,0,0,0)" d="   M 0.00 0.00   L 192.00 0.00   L 192.00 192.00   L 0.00 192.00   L 0.00 0.00   Z   M 74.03 118.74   L 75.90 123.47   L 78.49 127.30   L 79.08 127.96   Q 79.45 128.37 79.23 128.89   L 73.62 142.15   Q 73.41 142.66 73.92 142.85   C 75.99 143.64 77.10 143.07 77.76 140.94   Q 80.13 133.36 83.75 127.27   C 93.11 125.93 98.08 123.84 102.31 116.43   A 1.20 1.19 11.8 0 0 101.14 114.65   L 96.79 115.11   Q 96.63 115.13 96.57 114.97   Q 96.53 114.83 96.48 114.70   Q 96.44 114.57 96.57 114.57   Q 102.57 114.48 105.62 110.86   Q 106.55 109.19 106.54 107.51   L 112.76 97.07   A 0.15 0.15 0.0 0 0 112.57 96.86   L 105.31 100.11   A 0.23 0.23 0.0 0 1 105.09 99.71   C 108.82 97.31 113.01 95.05 115.75 91.74   Q 123.26 82.70 124.30 70.12   A 0.66 0.65 80.8 0 0 123.39 69.46   C 118.31 71.62 115.92 68.25 111.30 67.32   Q 110.88 67.23 111.25 67.02   L 111.51 66.86   Q 111.87 66.65 112.29 66.66   C 119.73 66.79 123.94 62.61 124.55 55.54   Q 125.25 47.51 127.55 39.86   Q 127.66 39.50 127.30 39.62   Q 120.59 41.91 109.20 44.39   C 97.71 46.89 98.84 56.08 101.73 64.71   Q 102.02 65.58 101.30 65.01   Q 95.93 60.73 94.76 54.00   Q 94.70 53.65 94.46 53.91   C 85.46 63.50 80.93 74.86 85.47 87.87   A 0.06 0.06 0.0 0 1 85.36 87.92   Q 82.03 82.69 81.66 76.53   Q 81.63 75.99 81.34 76.44   C 77.67 82.19 75.07 91.36 79.27 97.40   Q 79.31 97.46 79.24 97.51   Q 79.21 97.53 79.18 97.57   Q 79.08 97.72 79.06 97.68   Q 74.94 92.30 75.98 85.49   A 0.28 0.28 0.0 0 0 75.48 85.29   Q 67.93 96.61 73.52 109.35   Q 73.54 109.40 73.49 109.42   Q 73.35 109.47 73.21 109.51   Q 73.06 109.56 72.99 109.43   L 69.78 103.37   Q 69.45 102.76 69.42 103.45   C 69.15 108.83 71.16 113.78 74.03 118.74   Z   M 95.30 143.82   Q 87.25 143.59 79.04 143.78   C 77.09 143.83 75.43 145.18 73.12 143.99   Q 72.70 143.78 72.23 143.77   Q 68.15 143.70 64.10 143.79   C 62.84 143.82 61.71 144.38 61.73 145.74   A 1.78 1.78 0.0 0 0 63.51 147.50   L 95.58 147.50   A 1.27 1.26 -69.1 0 0 96.53 147.07   Q 97.84 145.57 96.32 144.23   A 1.64 1.61 66.3 0 0 95.30 143.82   Z"/>
<path fill="#ffffff" d="   M 106.54 107.51   Q 103.52 110.44 99.77 112.01   Q 99.44 112.15 99.73 112.37   Q 99.92 112.50 100.18 112.41   Q 102.80 111.47 105.62 110.86   Q 102.57 114.48 96.57 114.57   Q 96.44 114.57 96.48 114.70   Q 96.53 114.83 96.57 114.97   Q 96.63 115.13 96.79 115.11   L 101.14 114.65   A 1.20 1.19 11.8 0 1 102.31 116.43   C 98.08 123.84 93.11 125.93 83.75 127.27   L 89.46 111.93   Q 96.04 93.23 102.93 74.47   Q 109.00 57.93 121.76 45.86   Q 122.00 45.64 121.67 45.61   Q 121.41 45.58 121.23 45.82   Q 120.88 46.28 120.84 46.32   Q 108.99 57.41 103.26 69.54   Q 98.03 80.62 83.56 117.96   L 79.33 126.88   Q 79.18 127.20 78.83 127.26   Q 78.67 127.28 78.49 127.30   L 75.90 123.47   Q 76.41 123.23 77.24 123.42   Q 78.10 123.63 77.53 122.95   L 74.03 118.74   C 71.16 113.78 69.15 108.83 69.42 103.45   Q 69.45 102.76 69.78 103.37   L 72.99 109.43   Q 73.06 109.56 73.21 109.51   Q 73.35 109.47 73.49 109.42   Q 73.54 109.40 73.52 109.35   Q 67.93 96.61 75.48 85.29   A 0.28 0.28 0.0 0 1 75.98 85.49   Q 74.94 92.30 79.06 97.68   Q 79.08 97.72 79.18 97.57   Q 79.21 97.53 79.24 97.51   Q 79.31 97.46 79.27 97.40   C 75.07 91.36 77.67 82.19 81.34 76.44   Q 81.63 75.99 81.66 76.53   Q 82.03 82.69 85.36 87.92   A 0.06 0.06 0.0 0 0 85.47 87.87   C 80.93 74.86 85.46 63.50 94.46 53.91   Q 94.70 53.65 94.76 54.00   Q 95.93 60.73 101.30 65.01   Q 102.02 65.58 101.73 64.71   C 98.84 56.08 97.71 46.89 109.20 44.39   Q 120.59 41.91 127.30 39.62   Q 127.66 39.50 127.55 39.86   Q 125.25 47.51 124.55 55.54   C 123.94 62.61 119.73 66.79 112.29 66.66   Q 111.87 66.65 111.51 66.86   L 111.25 67.02   Q 110.88 67.23 111.30 67.32   C 115.92 68.25 118.31 71.62 123.39 69.46   A 0.66 0.65 80.8 0 1 124.30 70.12   Q 123.26 82.70 115.75 91.74   C 113.01 95.05 108.82 97.31 105.09 99.71   A 0.23 0.23 0.0 0 0 105.31 100.11   L 112.57 96.86   A 0.15 0.15 0.0 0 1 112.76 97.07   L 106.54 107.51   Z"/>
<path fill="#030303" d="   M 89.46 111.93   Q 86.18 114.41 84.85 118.39   A 0.58 0.57 42.1 0 1 83.78 118.44   L 83.56 117.96   Q 98.03 80.62 103.26 69.54   Q 108.99 57.41 120.84 46.32   Q 120.88 46.28 121.23 45.82   Q 121.41 45.58 121.67 45.61   Q 122.00 45.64 121.76 45.86   Q 109.00 57.93 102.93 74.47   Q 96.04 93.23 89.46 111.93   Z"/>
<path fill="#767575" d="   M 106.54 107.51   Q 106.55 109.19 105.62 110.86   Q 102.80 111.47 100.18 112.41   Q 99.92 112.50 99.73 112.37   Q 99.44 112.15 99.77 112.01   Q 103.52 110.44 106.54 107.51   Z"/>
<path fill="#767575" d="   M 89.46 111.93   L 83.75 127.27   Q 80.13 133.36 77.76 140.94   C 77.10 143.07 75.99 143.64 73.92 142.85   Q 73.41 142.66 73.62 142.15   L 79.23 128.89   Q 79.45 128.37 79.08 127.96   L 78.49 127.30   Q 78.67 127.28 78.83 127.26   Q 79.18 127.20 79.33 126.88   L 83.56 117.96   L 83.78 118.44   A 0.58 0.57 42.1 0 0 84.85 118.39   Q 86.18 114.41 89.46 111.93   Z"/>
<path fill="#767575" d="   M 74.03 118.74   L 77.53 122.95   Q 78.10 123.63 77.24 123.42   Q 76.41 123.23 75.90 123.47   L 74.03 118.74   Z"/>
<path fill="#ffffff" d="   M 95.30 143.82   A 1.64 1.61 66.3 0 1 96.32 144.23   Q 97.84 145.57 96.53 147.07   A 1.27 1.26 -69.1 0 1 95.58 147.50   L 63.51 147.50   A 1.78 1.78 0.0 0 1 61.73 145.74   C 61.71 144.38 62.84 143.82 64.10 143.79   Q 68.15 143.70 72.23 143.77   Q 72.70 143.78 73.12 143.99   C 75.43 145.18 77.09 143.83 79.04 143.78   Q 87.25 143.59 95.30 143.82   Z"/>
</svg>