<?xml version="1.0" standalone="no"?>
<!DOCTYPE svg PUBLIC "-//W3C//DTD SVG 20010904//EN"
 "http://www.w3.org/TR/2001/REC-SVG-20010904/DTD/svg10.dtd">
<svg version="1.0" xmlns="http://www.w3.org/2000/svg"
 width="1024.000000pt" height="1024.000000pt" viewBox="0 0 1024.000000 1024.000000"
 preserveAspectRatio="xMidYMid meet">
<metadata>
Created by potrace 1.14, written by Peter Selinger 2001-2017
</metadata>
<g transform="translate(0.000000,1024.000000) scale(0.100000,-0.100000)"
fill="#000000" stroke="none">
<path d="M7583 9394 c-260 -86 -685 -198 -1172 -310 -156 -35 -317 -75 -357
-89 -402 -135 -607 -422 -598 -836 1 -83 14 -240 19 -249 2 -3 6 -23 9 -45 13
-87 75 -331 114 -447 11 -32 16 -58 12 -58 -28 0 -208 182 -293 296 -101 137
-209 371 -233 508 -12 69 -27 116 -37 116 -22 0 -258 -277 -378 -442 -224
-310 -398 -688 -467 -1018 -48 -224 -62 -427 -48 -660 10 -147 61 -416 100
-529 9 -24 16 -46 16 -50 -1 -15 -35 41 -75 125 -99 203 -162 424 -181 629 -3
33 -7 69 -9 80 -2 11 -4 26 -4 33 -4 69 -144 -158 -233 -378 -67 -165 -114
-339 -133 -487 -4 -26 -10 -73 -14 -103 -13 -107 -1 -309 25 -415 28 -112 76
-226 127 -298 10 -16 17 -30 15 -32 -8 -9 -109 153 -147 236 -48 105 -68 168
-95 299 -12 57 -15 122 -12 267 4 177 3 192 -14 196 -10 2 -22 2 -27 -2 -20
-12 -142 -229 -188 -331 -119 -266 -169 -495 -169 -780 0 -252 40 -458 142
-735 23 -60 38 -113 33 -118 -4 -4 -40 55 -79 130 -93 178 -157 297 -188 351
-21 36 -28 41 -40 31 -12 -10 -14 -37 -10 -148 7 -185 22 -276 73 -456 50
-175 101 -291 288 -655 16 -30 32 -64 37 -75 4 -11 29 -76 56 -145 27 -69 53
-134 57 -145 5 -11 9 -22 9 -25 1 -5 35 -54 103 -152 18 -26 33 -52 33 -58 0
-5 3 -10 8 -10 4 0 20 -21 36 -48 17 -26 45 -63 64 -82 28 -29 33 -41 29 -70
-4 -32 -80 -221 -144 -360 -14 -30 -44 -102 -68 -160 -41 -101 -173 -413 -200
-475 -58 -129 -58 -141 0 -169 27 -14 62 -20 111 -20 61 -1 75 2 105 25 32 25
85 107 94 146 11 51 137 398 185 511 6 12 14 32 19 45 5 12 35 75 65 140 31
65 56 121 56 123 0 2 29 57 65 121 36 64 65 119 65 122 1 21 41 53 70 57 35 5
170 28 225 39 79 15 250 59 340 86 344 106 585 286 800 594 74 107 115 182
115 212 0 33 -32 81 -62 94 -26 11 -91 9 -218 -6 -25 -3 -76 -10 -115 -14 -38
-5 -73 -7 -77 -4 -22 13 0 21 75 27 165 13 272 41 394 102 93 46 223 147 257
198 31 49 62 144 72 229 5 37 28 85 97 200 49 84 98 166 107 182 21 36 216
364 230 385 68 107 84 150 57 150 -8 0 -88 -33 -178 -73 -90 -41 -186 -84
-214 -96 -27 -12 -64 -29 -80 -36 -56 -25 -127 -55 -131 -55 -22 0 22 32 164
121 365 226 554 374 693 539 397 473 637 1072 694 1732 4 56 -17 91 -56 90
-13 0 -59 -12 -103 -26 -157 -52 -282 -39 -495 51 -157 66 -300 120 -354 134
-43 10 -47 13 -34 27 9 9 39 16 74 18 32 1 96 6 143 9 47 4 86 7 87 7 14 -3
197 54 246 76 196 89 348 247 428 447 31 79 64 196 73 262 13 92 26 203 31
258 9 106 18 174 29 231 3 12 12 71 21 130 9 60 28 161 42 224 14 63 27 126
29 140 3 14 14 59 25 100 11 41 22 82 24 90 1 8 15 58 29 110 31 113 32 130 9
129 -10 0 -64 -16 -120 -35z"/>
<path d="M2696 993 c-1 -1 -43 -3 -94 -4 -110 -2 -178 -29 -209 -82 -45 -77
-16 -179 61 -217 43 -20 45 -20 1379 -18 l1335 3 28 25 c36 34 64 99 59 139
-8 63 -64 124 -130 142 -27 8 -238 12 -650 12 -726 1 -725 1 -845 -28 -156
-38 -203 -38 -306 1 -68 26 -73 26 -347 28 -153 0 -280 0 -281 -1z"/>
</g>
</svg>
